Patient4_TMGait_0pt4_01_right_22_EMG.mot
version=1
nRows=30
nColumns=33
inDegrees=no
endheader
time	1LAddLong	2LGlutMax	3LGlutMed	4LIliopsoas	5LSemiMemb	6LBicFemLong	7LRecFem	8LVastMed	9LVastLat	10LGasMed	11LTibAnt	12lTibPost	13LPeroneusLong	14LSol	15LExtDigLong	16LFlexDigLong	17RAddLong	18RGlutMax	19RGlutMed	20RIliopsoas	21RSemiMemb	22RBicFemLong	23RRecFem	24RVastMed	25RVastLat	26RGasMed	27RTibAnt	28RTibPost	29RPeroneusLong	30RSol	31RExtDigLong	32RFlexDigLong
28.33	0.017395	0.068054	-0.070038	0.003052	0.036011	0.44983	0.041046	0.012817	-0.056763	0.30655	-0.027008	-0.00351	-0.51743	0.096588	0.050659	0.003052	0.010681	-0.048676	0.20096	-0.053711	-0.022888	0.021973	-0.024872	-0.049896	0.014648	-0.015106	-0.4631	-0.007477	0.33722	0.021362	-0.003204	-0.00412
28.331	0.010529	0.10025	0.042725	0.017853	0.023499	0.42816	0.025482	0.011597	-0.0354	0.097046	0.018463	0.001526	0.24658	-0.14496	-0.12802	-0.009918	-0.002594	0.0177	0.56992	-0.13641	-0.014648	0.00824	-0.001068	-0.019531	0.011902	-0.002289	-0.42145	-0.00946	0.37033	-0.063782	-0.001831	-0.010071
28.332	0.009155	0.12528	0.030212	0	0.013428	0.16251	0.019379	0.013733	-0.012665	-0.30151	0.05127	0.00061	0.13153	-0.18539	-0.07309	-0.002747	0.013275	0.01709	0.5249	-0.070496	0.004272	0.021057	-0.04715	-0.028381	0.012817	-0.006256	-0.23025	-0.003204	0.3447	-0.037689	-0.000305	-0.016479
28.333	0.012665	0.10925	-0.007629	-0.018005	0.023651	-0.40619	0.016479	0.03067	-0.019684	0.31006	0.03479	0.003052	0.037079	-0.35217	-0.069275	-0.009918	0.014496	0.017548	-0.15762	0.084381	0.040894	0.002289	-0.024719	-0.013275	0.0177	-0.008087	-0.10468	-0.003815	0.21729	-0.040741	-0.001678	-0.016632
28.334	0.010223	0.13962	0.064087	0.014648	0.018158	-0.54443	0.025177	0.003357	-0.014038	0.49042	0.02182	-0.00061	0.077209	-0.17487	-0.048676	-0.002441	0.011139	0.005188	0.009613	0.085449	0.067596	0.000916	0.054779	0.000305	0.008392	0.001831	-0.080872	-0.002747	-0.029144	-0.09079	0.001068	-0.004272
28.335	0.004272	0.10239	0.057526	0.007324	0.025482	-0.22095	0.026093	0.006409	-0.00473	0.099182	0.025482	0.004883	0.12283	-0.1152	0.005646	-0.003967	0.009918	-0.03479	0.095978	0.071259	0.054474	0.00946	0.079956	-0.005188	-0.011444	0.007935	-0.080261	-0.002899	-0.17059	-0.027466	0.001831	-0.014496
28.336	0.010986	0.065002	0.10025	-0.007935	0.015106	0.13809	0.043488	-0.002441	-0.020294	0.3833	0.026855	0.001984	-0.13458	-0.016479	0.14496	-0.002289	0.010834	-0.072021	0.16907	-0.026245	-0.064087	0.029144	0.19943	0.020905	-0.012054	0.006256	-0.003815	-0.001984	-0.26733	0.043488	0.008545	-0.014954
28.337	0.011139	0.051727	0.062561	0.018921	0.002136	0.23102	0.036469	0.010986	-0.021973	0.48737	0.04364	0	-0.327	-0.055847	0.13931	-0.012512	0.004578	-0.028839	0.010986	-0.045776	-0.19318	0.072021	0.19058	0.036163	-0.000763	-0.000458	0.11383	-0.003357	-0.17944	0.080719	-0.000305	-0.014038
28.338	0.011597	0.098114	-0.11322	0.002594	0.003357	0.090027	0.023651	0.009918	-0.026245	0.25803	0.033722	-0.005188	-0.027466	-0.18494	0.066528	-0.002747	0.007172	-0.001678	0.022888	0.060272	-0.11261	0.049133	0.10346	0.002747	0.00473	-0.006104	0.18601	-0.000916	-0.088348	-0.013123	0.000763	-0.013428
28.339	0.013123	0.11032	-0.2301	0.001068	-0.004272	-0.088196	0.048981	0.005798	-0.025177	0.26123	0.009003	-0.007629	-0.15503	-0.074921	0.046539	-0.006409	0.009308	0.035553	0.17166	0.091248	-0.006104	0.004272	0.057526	0.018768	0.01358	-0.011292	0.17288	-0.003204	-0.034637	-0.053253	-0.003662	-0.008087
28.34	0.009613	0.054626	-0.090637	-0.007477	0.014038	-0.26581	0.074005	0.012817	-0.083771	0.39032	-0.038452	-0.016327	0.091553	-0.224	-0.005798	0.01297	0.007935	0.034027	0.42648	-0.009308	0.08316	-0.006104	0.009766	-0.014954	0.012512	-0.014801	0.13229	0.000458	-0.098419	-0.001678	-0.002441	-0.006866
28.341	0.003815	-0.012512	0.074615	-0.007172	0.011444	-0.17044	0.10346	0.022278	-0.1239	0.3865	-0.024872	0.034027	0.15228	-0.31586	0.016937	-0.002747	-0.00946	0.068359	0.48218	-0.059509	0.055695	-0.000458	0.027313	-0.019531	0.007324	-0.007172	0.11551	-0.002441	-0.23804	-0.016937	-0.005035	-0.00351
28.342	0.007324	0.002899	0.21988	0.040283	0.016632	-0.055237	0.1062	0.018005	-0.12207	0.61615	-0.035858	0.36072	0.24536	-0.25269	0.10941	-0.03006	-0.023651	-0.007477	0.49637	-0.041199	-0.017853	0.016632	-0.028839	0.011902	0.010071	-0.01297	0.15869	-0.003052	-0.15747	-0.03067	0.000305	0.010071
28.343	0.001221	-0.014038	0.13184	0.03952	0.034637	-0.04303	0.080414	0.025482	-0.11536	0.66773	-0.034637	-0.45288	-0.013885	-0.29053	-0.010529	-0.036469	-0.014038	-0.034027	0.31647	-0.001068	-0.007935	0.004272	-0.018463	-0.007782	0.008392	-0.005493	0.1088	-0.002899	0.25925	-0.026703	-0.002899	0.00946
28.344	0.012817	0.026093	0.08667	-0.013885	0.03067	0.010376	-0.011444	0.024414	-0.062256	-0.006104	-0.045929	0.27542	-0.24536	-0.45288	-0.12466	0.005188	-0.006866	-0.017242	0.19653	0.029297	-0.014954	0.005035	0.004425	-0.018158	0.009155	0.001373	0.17242	-0.001373	-0.014038	-0.03891	-0.002136	0.014801
28.345	0.016479	0.04837	0.020447	-0.027771	0.005951	0.092316	0.012207	0.022888	0.047302	-0.57877	-0.035553	0.14282	0.17105	-0.392	-0.028229	0.084534	-0.007324	0.007782	0.13458	0.028381	-0.088501	0.08606	-0.015564	-0.034637	0.022736	0.010071	0.12848	-0.00473	-0.023346	-0.022278	-0.004883	0.020905
28.346	0.013428	0.046234	-0.046844	-0.01358	-0.012817	0.070038	-0.031738	0.009308	0.015411	-1.104	-0.00824	0.013123	0.09079	0.00351	0.067139	-0.02121	-0.00824	0.036469	0.2945	0.032654	-0.121	0.099335	-0.011902	-0.058289	0.019379	0.01709	0.068512	-0.006256	0.10056	-0.044556	0	0.031281
28.347	0.02182	0.057678	-0.112	-0.00412	0.003662	0.051727	-0.066376	0.000458	-0.059814	-0.68253	-0.000763	-0.041199	-0.19592	0.34882	0.055695	-0.048676	-0.002289	-0.028381	0.32944	0.025177	-0.12024	0.063171	0.020599	-0.068054	0.021667	0.032349	-0.0177	-0.002747	0.16586	-0.076141	0	0.026245
28.348	0.010986	0.027313	0.011444	-0.011292	0.02533	0.063171	-0.063019	0.00824	0.003204	-0.61996	-0.044861	-0.046844	1.0136	0.41458	0.018005	-0.020599	-0.0177	-0.0383	0.29587	0.049896	-0.041504	0.044403	-0.015411	-0.050964	0.013885	0.03067	-0.28381	-0.002747	0.020599	-0.09201	-0.002441	0.039825
28.349	0.013428	-0.014801	0.028229	0.009308	0.018768	0.057983	-0.12039	0.009613	0.084534	-0.62317	-0.044861	-0.025177	1.0667	0.19089	-0.007324	0.035706	-0.023499	0.011139	0.057983	0.059509	-0.001526	0.024414	-0.05722	0.019684	0.00885	0.029602	0.028839	-0.002594	-0.062561	-0.092773	-0.002289	0.049744
28.35	0.013123	-0.010986	0.075073	0.003967	0.017853	0.068054	-0.079041	0.004883	0.096588	-0.53696	-0.062714	-0.065002	-0.47485	0.37582	0.15686	0.016937	-0.014954	0.054474	0.072021	0.003815	0.066986	0.031586	-0.015869	0.004425	0.016937	0.035248	0.019531	-0.002289	-0.086212	-0.097961	0	0.054626
28.351	0.011444	0.011749	0.089417	0.007324	0.00885	0.034485	-0.009308	0.003357	0.10101	-0.36011	-0.12772	-0.039215	0.014191	0.26352	0.15717	0.002289	-0.011444	0.055389	0.05661	0.001984	0.024567	0.03418	0.01709	-0.038452	0.028534	0.052795	-0.065765	-0.003204	-0.17242	-0.12299	-0.003967	0.069885
28.352	0.001984	0.006561	0.007477	0.007477	-0.00351	-0.045319	0.015259	0.000153	0.098267	-0.29129	-0.13626	-0.022125	-0.28015	0.27969	-0.39169	-0.009003	-0.003662	0.08606	0.31769	0.028839	-0.01358	0.027924	0.081635	-0.024567	0.035706	0.079193	-0.10773	-0.003204	-0.006256	-0.14435	-0.001831	0.09613
28.353	0.01358	0.011902	-0.028992	-0.015259	0.00351	-0.014648	0.003662	0.007629	0.040588	-0.2269	-0.14893	-0.027618	-0.59097	0.39642	0.11185	-0.0177	-0.00946	0.095062	0.26932	0.037079	-0.0177	0.024567	0.065308	-0.021362	0.024872	0.10513	-0.23483	-0.002136	0.034332	-0.16632	-0.001678	0.12405
28.354	0.005035	0.032806	0.011444	0.006866	-0.006561	0.024567	-0.037994	0.009766	-0.028381	-0.18127	0.081635	-0.024261	-0.38208	0.34897	-0.17883	-0.013733	-0.00885	0.10483	0.99808	-0.014038	-0.015869	0.02243	0.15045	-0.045776	0.009918	0.12085	-0.035095	-0.005493	-0.35034	-0.056152	-0.001831	0.14816
28.355	0.011139	0.000458	0.023346	0.02533	-0.006256	0.032654	-0.028534	0.005798	-0.014191	-0.16571	0.45441	-0.028992	0.075531	0.15091	-0.14557	-0.014038	0.003204	-0.029907	1.0068	-0.019989	-0.021057	0.005646	0.083771	-0.012665	0.001984	0.11856	0.18021	-0.003052	-0.042725	0.037079	0.002289	0.18204
28.356	0.014191	0.019531	0.022736	0.01236	-0.000153	0.04715	-0.028534	0.007935	-0.014648	-0.13825	0.4393	0.003815	0.013885	0.10727	-0.17197	-0.002136	0.01297	-0.13412	0.51224	-0.0177	-0.023499	-0.02243	0.063171	-0.049591	0.011749	0.12375	0.37827	-0.005493	-0.088501	0.046844	-0.000763	0.18723
28.357	0.007172	-0.033875	-0.003662	0.025177	0.000763	0.04364	-0.00824	0.004578	-0.027161	-0.13458	0.28686	-0.005188	-0.10742	-0.10071	-0.40558	0.000458	0.03006	-0.053406	0.26947	-0.025787	-0.032501	-0.033875	0.021973	-0.08606	-0.00473	0.13916	0.29511	-0.004425	-0.23605	0.01236	-0.001984	-0.086365
28.358	0.008087	-0.018463	-0.10162	-0.004883	0.000305	0.16571	-0.00473	0.010834	-0.043182	-0.10895	-0.018463	-0.017395	0.063324	-0.025635	0.16327	-0.004883	0.040131	-0.053253	0.20035	0.097046	-0.033722	-0.053558	-0.097351	-0.052948	0.010071	0.14023	0.004883	-0.002289	-0.22537	-0.029144	-0.004883	-0.30563
28.359	0.015106	0.000458	-0.043793	-0.020142	-0.003967	0.39276	-0.023651	0.016479	-0.001526	-0.046692	-0.044098	-0.022736	-0.051117	-0.024872	0.18265	-0.005798	0.045166	-0.052795	0.10635	0.11627	0.014648	-0.04425	-0.16922	-0.087738	0.011139	0.1384	-0.058441	-0.003815	-0.066681	-0.025787	-0.001221	-0.40237
